<svg width="256" height="256" xmlns="http://www.w3.org/2000/svg">
<path d=" M 44.04 24.08 C 53.57 18.15 64.75 14.69 75.99 14.64 C 85.33 15.62 94.90 17.82 102.72 23.27 C 109.15 28.14 114.86 34.06 119.10 40.94 C 122.73 46.88 125.87 53.10 129.01 59.30 C 132.19 52.81 135.62 46.43 139.31 40.22 C 147.08 28.36 158.85 18.31 173.22 16.02 C 184.99 12.83 197.45 15.77 208.21 20.92 C 225.38 29.10 237.29 46.07 241.58 64.33 C 243.41 71.45 242.85 78.86 243.53 86.11 C 244.18 92.20 242.81 98.22 242.13 104.24 C 239.88 115.97 236.53 127.56 231.28 138.32 C 222.05 156.46 209.77 173.01 195.07 187.08 C 185.44 196.90 174.58 205.40 163.56 213.57 C 160.24 216.68 156.45 219.17 152.61 221.58 C 144.89 227.64 136.77 233.15 129.02 239.18 C 118.74 231.31 108.18 223.81 97.66 216.27 C 92.37 211.54 86.23 207.90 80.98 203.11 C 69.17 194.01 58.73 183.26 48.87 172.10 C 37.48 158.11 27.59 142.64 21.38 125.63 C 17.58 113.77 14.61 101.53 14.31 89.03 C 15.20 79.22 14.42 69.12 17.60 59.64 C 22.25 45.40 31.21 32.15 44.04 24.08 Z"></path>
</svg>
