<svg width="256" height="256" xmlns="http://www.w3.org/2000/svg">
    <g fill="#ff0000"><path d=" M 97.27 58.27 C 106.37 49.80 118.34 43.43 131.05 43.84 C 142.67 44.84 154.25 46.49 165.68 48.85 C 168.79 49.31 171.12 51.57 172.72 54.14 C 173.61 59.47 176.15 64.54 175.86 70.04 C 175.76 72.76 174.31 75.63 171.71 76.72 C 166.89 79.05 161.51 80.32 157.08 83.40 C 156.66 83.69 155.83 84.26 155.41 84.54 C 155.38 85.58 155.34 86.63 155.30 87.67 C 159.49 90.77 164.68 91.78 169.63 93.00 C 167.12 97.90 163.05 102.26 162.48 107.95 C 162.33 112.38 162.25 116.83 162.60 121.25 C 163.47 125.66 164.57 130.03 165.63 134.40 C 167.23 141.15 171.31 147.16 171.98 154.15 C 171.50 153.88 170.53 153.35 170.05 153.08 C 163.01 148.55 157.23 142.22 149.80 138.31 C 151.01 143.68 154.14 148.27 156.96 152.90 C 157.17 153.41 157.60 154.43 157.81 154.94 C 158.81 162.13 163.13 168.25 164.27 175.39 C 155.49 170.46 150.25 161.61 143.66 154.35 C 139.85 149.94 135.54 145.99 130.68 142.77 C 131.62 149.39 132.04 156.20 130.75 162.81 C 129.63 168.69 126.27 173.76 123.89 179.16 C 121.74 183.13 118.62 186.47 116.25 190.31 C 112.97 195.22 108.11 198.71 103.17 201.78 L 103.32 200.80 C 104.24 193.22 105.90 185.66 105.46 177.99 C 105.21 172.10 103.83 166.35 102.23 160.70 C 100.36 154.03 99.81 147.03 97.38 140.51 C 96.32 137.69 95.35 134.83 94.49 131.94 C 93.64 147.25 92.43 163.22 85.01 176.98 C 82.12 182.17 78.97 187.78 73.38 190.47 C 74.41 184.97 75.89 179.53 76.33 173.94 C 76.61 162.96 76.16 151.96 76.61 140.98 C 76.81 133.93 78.54 127.01 78.65 119.95 C 77.19 120.83 75.72 121.70 74.34 122.70 C 71.24 125.09 68.23 127.68 64.79 129.56 C 63.62 129.71 62.45 129.86 61.28 130.00 C 64.37 125.05 67.71 120.18 69.70 114.66 C 71.73 108.81 72.82 102.68 74.63 96.76 C 76.92 88.36 80.33 80.29 84.70 72.76 C 87.92 67.17 92.78 62.82 97.27 58.27 M 143.01 59.86 C 144.18 60.53 145.39 61.14 146.62 61.70 C 146.36 63.77 145.77 65.87 146.15 67.96 C 147.54 73.36 154.15 77.31 159.31 74.24 C 164.51 71.48 164.60 64.99 167.52 60.51 C 159.42 59.14 151.17 59.21 143.01 59.86 Z"></path></g>
    <g fill="#00ff00"><path d=" M 174.04 55.09 C 181.46 55.40 188.60 57.74 195.38 60.62 C 202.78 63.88 206.40 71.84 208.88 79.05 C 210.76 84.00 211.26 89.84 208.16 94.44 C 206.93 91.17 205.10 88.14 202.12 86.19 C 192.33 90.12 181.61 90.53 171.27 91.85 C 170.71 92.21 170.16 92.59 169.63 93.00 C 164.68 91.78 159.49 90.77 155.30 87.67 C 155.34 86.63 155.38 85.58 155.41 84.54 C 155.83 84.26 156.66 83.69 157.08 83.40 C 162.04 81.61 167.08 79.96 171.81 77.59 C 175.05 76.07 177.11 72.53 177.27 69.02 C 176.50 64.31 174.63 59.85 174.04 55.09 Z"></path><path d=" M 147.83 67.85 C 147.01 65.42 148.08 61.83 151.02 61.59 C 154.76 61.13 158.54 61.51 162.29 61.74 C 162.41 64.13 162.86 66.57 162.38 68.94 C 160.49 71.54 157.52 74.14 154.06 73.48 C 151.35 72.57 148.94 70.51 147.83 67.85 Z"></path><path d=" M 50.19 162.81 C 52.62 148.10 61.71 134.71 74.22 126.72 C 74.81 132.59 72.73 138.25 70.65 143.63 C 68.59 148.29 66.61 153.25 62.84 156.83 C 59.14 159.77 54.40 160.84 50.19 162.81 Z"></path><path d=" M 160.08 152.62 C 167.28 155.69 174.23 159.64 179.87 165.13 C 187.88 172.56 185.35 186.82 176.75 192.77 C 175.28 189.19 175.60 185.23 174.50 181.56 C 171.68 171.05 165.93 161.67 160.08 152.62 Z"></path><path d=" M 135.22 153.65 C 144.41 158.66 148.32 170.86 145.12 180.57 C 142.45 190.83 132.69 196.63 127.03 205.05 C 121.71 200.10 120.75 191.52 124.29 185.29 C 127.10 179.00 132.82 174.35 134.65 167.58 C 136.14 163.07 135.34 158.28 135.22 153.65 Z"></path><path d=" M 92.91 159.62 C 96.40 163.29 98.13 168.41 99.31 173.25 C 99.44 179.40 100.44 185.95 97.88 191.77 C 93.82 201.81 85.99 209.59 80.40 218.74 C 77.94 211.61 78.54 203.69 81.76 196.90 C 85.18 189.79 88.09 182.47 91.19 175.23 C 93.32 170.28 92.05 164.79 92.91 159.62 Z"></path></g>
</svg>
