<svg width="256" height="256" xmlns="http://www.w3.org/2000/svg">
    <g fill="#ff0000"><path d=" M 105.21 55.36 C 112.44 51.73 120.80 49.99 128.85 51.17 C 135.45 51.71 141.84 53.50 148.30 54.87 C 147.17 57.90 145.21 60.64 144.91 63.94 C 144.44 66.42 143.43 69.53 145.49 71.57 C 149.12 75.07 154.78 73.51 158.69 71.31 C 157.97 67.28 157.61 63.16 156.34 59.25 C 160.29 57.96 164.26 61.00 167.98 62.23 C 172.29 63.83 177.40 65.70 178.31 70.88 L 178.98 70.07 C 178.81 70.79 178.47 72.24 178.30 72.97 C 180.01 71.24 182.59 71.04 184.54 72.32 C 190.13 75.03 195.20 78.72 199.75 82.94 C 199.60 84.32 199.46 85.71 199.33 87.09 C 197.27 85.99 195.19 84.92 193.07 83.93 C 194.40 85.63 195.98 87.16 197.02 89.08 C 197.94 93.01 197.62 97.25 194.86 100.39 C 192.09 99.21 189.12 98.16 186.06 98.37 C 182.32 98.57 178.42 97.95 174.89 99.54 C 177.08 95.24 180.17 91.39 181.86 86.85 C 179.79 82.21 178.16 77.42 177.47 72.37 C 174.88 72.83 172.29 73.22 169.70 73.63 C 171.97 75.63 174.78 77.01 176.81 79.28 C 178.21 81.61 179.49 84.16 179.90 86.86 C 176.47 94.85 171.12 101.93 167.90 110.05 C 166.34 113.58 166.23 117.97 169.25 120.79 C 171.69 124.46 176.46 125.34 179.42 128.24 C 177.80 132.23 173.73 134.91 170.04 137.06 C 168.99 138.73 167.45 140.00 165.31 139.84 C 165.63 139.32 166.26 138.30 166.57 137.79 C 163.46 137.95 160.68 136.39 159.00 133.81 C 160.86 132.71 162.97 133.14 164.99 133.29 C 162.40 131.19 158.69 130.16 157.39 126.81 C 158.19 126.69 159.78 126.44 160.57 126.32 C 159.49 125.06 158.42 123.80 157.37 122.52 C 157.15 122.77 156.70 123.26 156.48 123.51 C 154.71 122.75 152.83 122.40 150.92 122.34 C 152.78 115.31 157.02 109.34 159.96 102.82 C 154.44 101.39 149.27 104.27 144.50 106.65 C 135.73 112.52 132.86 123.97 133.74 133.97 C 134.99 139.78 136.78 145.65 140.44 150.43 C 146.08 159.87 153.69 167.96 159.26 177.44 C 161.73 181.45 161.94 186.29 161.32 190.84 C 158.49 183.99 155.40 177.14 150.66 171.34 C 144.82 164.35 140.08 156.56 134.90 149.09 C 131.61 142.91 129.77 135.95 129.51 128.95 C 129.11 124.09 130.88 119.45 132.01 114.80 C 133.41 109.65 137.47 105.89 141.61 102.81 C 146.38 98.84 152.57 97.48 158.23 95.32 C 158.31 94.38 158.98 93.39 158.51 92.48 C 155.69 87.99 151.34 84.74 146.82 82.11 C 142.94 79.85 138.32 80.45 134.03 80.30 C 127.26 80.01 121.51 84.48 117.02 89.06 C 109.28 99.43 103.56 112.72 106.36 125.84 C 107.81 135.75 113.11 144.40 118.17 152.83 C 123.36 161.09 130.13 168.23 135.06 176.66 C 138.60 181.68 142.33 186.72 144.31 192.61 C 144.28 194.41 144.28 196.20 144.25 198.00 C 143.13 201.50 141.83 205.04 139.09 207.62 C 139.87 203.44 141.23 199.17 140.24 194.90 C 139.39 192.20 138.15 189.66 137.03 187.07 C 135.16 182.86 131.80 179.61 129.38 175.76 C 124.29 167.27 118.13 159.50 112.76 151.20 C 105.24 141.65 99.40 130.29 98.71 117.96 C 98.47 111.38 98.19 104.59 100.58 98.33 C 104.14 85.91 114.33 75.38 126.76 71.77 C 132.43 70.04 138.13 71.69 143.88 71.73 C 142.61 68.69 140.27 66.28 137.60 64.43 C 133.72 61.25 128.52 60.86 123.80 59.87 C 119.18 59.49 114.51 60.57 110.18 62.15 C 104.61 64.04 100.32 68.24 95.77 71.79 C 89.28 76.98 85.54 84.52 81.20 91.41 C 81.62 84.45 84.85 78.15 88.06 72.12 C 91.96 64.96 98.50 59.74 105.21 55.36 Z"></path><path d=" M 146.29 68.44 C 148.28 62.98 149.62 56.56 154.36 52.75 C 154.64 54.82 154.80 56.90 155.13 58.96 C 154.66 62.72 154.59 66.57 156.07 70.13 C 152.90 72.65 148.54 71.61 146.29 68.44 Z"></path><path d=" M 59.72 96.67 C 60.56 96.57 61.40 96.47 62.24 96.35 C 62.41 98.91 61.75 101.73 63.32 103.97 C 65.20 114.45 68.18 124.88 73.52 134.15 C 75.49 138.23 77.52 142.28 79.72 146.24 C 83.14 152.26 88.05 157.22 92.47 162.48 C 96.59 168.33 99.69 174.90 101.37 181.87 C 101.64 184.09 100.88 186.07 100.03 188.07 C 99.09 189.22 97.77 189.69 96.33 189.82 L 96.74 190.79 L 95.11 190.24 L 95.78 191.29 C 94.32 191.67 92.89 192.09 91.46 192.54 C 92.15 186.17 90.46 179.89 88.40 173.92 C 83.71 165.10 77.47 157.24 72.74 148.45 C 69.72 143.34 67.78 137.60 64.05 132.91 C 60.68 121.17 58.92 108.90 59.72 96.67 Z"></path><path d=" M 188.58 99.21 C 190.53 99.22 192.35 99.87 194.14 100.60 C 192.42 104.00 190.42 107.70 186.46 108.85 C 186.75 105.54 189.04 102.66 188.58 99.21 Z"></path><path d=" M 176.89 124.44 C 177.84 123.35 178.79 122.27 179.76 121.20 C 179.81 122.46 179.85 123.71 179.90 124.97 C 179.15 124.84 177.64 124.57 176.89 124.44 Z"></path><path d=" M 149.61 131.61 C 153.55 135.34 157.59 139.15 159.94 144.14 C 162.44 149.54 164.34 155.30 164.91 161.25 L 166.34 159.55 C 165.67 160.98 164.98 162.40 164.20 163.77 C 163.23 162.41 163.42 160.67 163.22 159.10 C 161.26 156.31 159.37 153.46 157.12 150.90 C 152.60 145.52 149.96 138.63 149.61 131.61 Z"></path></g>
    <g fill="#00ff00"><path d=" M 103.10 38.25 C 108.38 37.72 113.66 37.08 118.94 36.50 C 126.81 36.66 135.43 34.77 142.37 39.57 C 145.76 42.42 150.23 43.41 153.64 46.22 C 158.79 50.28 164.44 54.27 167.30 60.39 C 164.97 59.47 162.63 58.61 160.34 57.61 C 156.60 56.59 156.67 51.57 153.07 50.27 C 151.89 50.95 150.82 51.81 149.72 52.62 C 144.94 50.94 140.10 49.34 135.09 48.56 C 124.09 47.72 112.47 48.34 102.54 53.60 C 91.23 60.76 82.77 72.32 79.51 85.32 C 78.00 91.13 78.93 97.15 79.60 103.01 C 81.34 96.84 84.44 91.19 87.58 85.64 C 94.87 75.45 104.34 65.68 116.84 62.44 C 124.86 61.69 133.36 63.89 139.45 69.34 C 132.01 69.17 124.08 68.73 117.35 72.49 C 108.60 76.43 103.12 84.86 99.29 93.30 C 95.66 101.67 94.98 111.01 95.63 120.02 C 96.30 129.49 100.73 138.25 106.18 145.86 C 111.46 153.62 116.68 161.42 122.15 169.05 C 125.37 173.50 127.70 178.55 131.34 182.70 C 134.14 185.94 135.22 190.18 137.08 193.96 C 137.14 204.01 131.83 214.40 122.08 218.09 C 117.86 219.24 114.46 222.37 110.07 223.00 C 109.37 220.49 110.83 218.90 112.91 217.79 C 115.23 214.11 117.98 210.49 118.82 206.13 C 119.23 199.19 116.37 192.69 113.12 186.74 C 108.74 177.28 102.88 168.62 96.88 160.13 C 93.09 155.16 89.03 150.36 85.76 145.02 C 80.00 135.94 73.39 127.18 69.88 116.91 C 67.52 109.05 65.95 101.00 64.42 92.96 C 62.58 88.06 64.04 82.91 64.52 77.92 C 65.46 69.72 68.15 61.16 74.46 55.48 C 78.54 51.81 82.14 47.48 87.00 44.78 C 92.00 41.76 97.78 40.55 103.10 38.25 Z"></path><path d=" M 119.14 91.00 C 123.41 86.19 129.28 82.03 136.00 82.37 C 144.38 81.76 151.52 87.38 156.88 93.19 C 147.92 95.66 138.62 99.26 132.39 106.45 C 127.60 113.96 124.99 123.16 126.49 132.07 C 127.79 139.89 130.24 147.71 134.69 154.33 C 139.98 161.13 144.84 168.25 149.76 175.31 C 153.08 179.76 156.51 184.49 157.36 190.11 C 157.69 193.11 158.30 196.59 156.19 199.12 C 152.85 203.35 149.29 207.45 145.15 210.93 C 149.14 203.37 151.49 193.53 146.18 185.98 C 138.06 175.30 129.07 165.23 122.20 153.66 C 114.89 143.17 108.78 131.06 109.00 117.97 C 109.70 108.28 112.85 98.52 119.14 91.00 Z"></path><path d=" M 142.05 112.96 C 145.51 108.74 150.65 106.06 155.99 105.11 C 149.89 113.49 147.54 123.90 147.13 134.09 C 147.90 141.06 151.33 147.39 154.75 153.38 C 159.69 161.99 166.87 169.26 170.68 178.51 C 172.45 181.88 170.46 185.42 169.53 188.71 C 168.60 191.63 166.49 193.92 164.36 196.04 C 165.13 190.87 166.88 185.34 164.56 180.30 C 160.62 171.80 153.57 165.35 148.12 157.89 C 142.53 149.42 135.97 140.58 135.95 129.96 C 136.31 123.88 138.59 117.94 142.05 112.96 Z"></path></g>
</svg>
